<svg xmlns="http://www.w3.org/2000/svg" viewBox="0 0 512 512">
  <defs>
    <linearGradient id="bg" x1="0%" y1="0%" x2="100%" y2="100%">
      <stop offset="0%" stop-color="#0C3853"/>
      <stop offset="100%" stop-color="#A8CDD6"/>
    </linearGradient>
    <linearGradient id="paper" x1="0%" y1="0%" x2="0%" y2="100%">
      <stop offset="0%" stop-color="#F5F5F7"/>
      <stop offset="100%" stop-color="#DDE4EF"/>
    </linearGradient>
  </defs>

  <rect x="24" y="24" width="464" height="464" rx="120" fill="url(#bg)"/>
  <rect x="120" y="104" width="272" height="320" rx="34" fill="url(#paper)"/>
  <line x1="120" y1="168" x2="392" y2="168" stroke="#C1CAD8" stroke-width="2"/>
  <circle cx="142" cy="130" r="8" fill="none" stroke="#6CA2D5" stroke-width="2"/>
  <circle cx="370" cy="130" r="8" fill="none" stroke="#6CA2D5" stroke-width="2"/>
  <circle cx="142" cy="402" r="8" fill="none" stroke="#6CA2D5" stroke-width="2"/>
  <circle cx="370" cy="402" r="8" fill="none" stroke="#6CA2D5" stroke-width="2"/>

  <rect x="142" y="188" width="24" height="24" rx="6" fill="#2E7CA4"/>
  <path d="M147 199l7 9 13-18" fill="none" stroke="#fff" stroke-width="3.5" stroke-linecap="round" stroke-linejoin="round"/>
  <rect x="178" y="194" width="140" height="10" rx="5" fill="#BBC6D7"/>

  <rect x="142" y="228" width="24" height="24" rx="6" fill="#2E7CA4"/>
  <path d="M147 239l7 9 13-18" fill="none" stroke="#fff" stroke-width="3.5" stroke-linecap="round" stroke-linejoin="round"/>
  <rect x="178" y="234" width="124" height="10" rx="5" fill="#BBC6D7"/>

  <rect x="142" y="268" width="24" height="24" rx="6" fill="none" stroke="#7AAFD2" stroke-width="2"/>
  <rect x="178" y="274" width="136" height="10" rx="5" fill="#C8D1DF"/>

  <rect x="142" y="308" width="24" height="24" rx="6" fill="none" stroke="#7AAFD2" stroke-width="2"/>
  <rect x="178" y="314" width="100" height="10" rx="5" fill="#C8D1DF"/>

  <rect x="142" y="352" width="208" height="8" rx="4" fill="#8DB2C9"/>
  <rect x="350" y="352" width="30" height="8" rx="4" fill="#C5D2DE"/>
</svg>
